# xmcd
#
# Track frame offsets: 
#        150
#        6387
#        15396
#        17453
#        20718
#        24165
#        29012
#        35551
#        47107
#        59680
#        73983
#        79935
#        85921
#        96457
#        104329
#        114405
#        121227
#        128858
#        139049
#        146139
#        153196
#        160738
#        162531
#        172759
#        176145
#        186851
#        199796
#        204214
#        212542
#        220990
#        230144
#
# Disc length: 3189 seconds
#
# Revision: 0
# Processed by: cddbd v1.5.2PL0 Copyright (c) Steve Scherf et al.
# Submitted via: ExactAudioCopyFreeDBPlugin 1.0
#
DISCID=b80c731f
DTITLE=C1234 - C1234
DYEAR=1900
DGENRE=
TTITLE0=1
TTITLE1=2
TTITLE2=3
TTITLE3=4
TTITLE4=5
TTITLE5=6
TTITLE6=7
TTITLE7=8
TTITLE8=9
TTITLE9=10
TTITLE10=11
TTITLE11=12
TTITLE12=13
TTITLE13=14
TTITLE14=15
TTITLE15=16
TTITLE16=17
TTITLE17=18
TTITLE18=19
TTITLE19=20
TTITLE20=YJYT
TTITLE21=YJYT
TTITLE22=JYTJH
TTITLE23=NGN
TTITLE24=GBHSG
TTITLE25=BGBG
TTITLE26=FG
TTITLE27=FER
TTITLE28=EFW
TTITLE29=EF
TTITLE30=FWEFGWGF
EXTD=
EXTT0=
EXTT1=
EXTT2=
EXTT3=
EXTT4=
EXTT5=
EXTT6=
EXTT7=
EXTT8=
EXTT9=
EXTT10=
EXTT11=
EXTT12=
EXTT13=
EXTT14=
EXTT15=
EXTT16=
EXTT17=
EXTT18=
EXTT19=
EXTT20=
EXTT21=
EXTT22=
EXTT23=
EXTT24=
EXTT25=
EXTT26=
EXTT27=
EXTT28=
EXTT29=
EXTT30=
PLAYORDER=
